<mxfile host="app.diagrams.net" modified="2023-10-11T09:15:16.587Z" agent="Mozilla/5.0 (Windows NT 10.0; Win64; x64) AppleWebKit/537.36 (KHTML, like Gecko) Chrome/117.0.0.0 Safari/537.36" etag="zExPR1wo84sxqh5ew_ZJ" version="22.0.4" type="github">
  <diagram name="Page-1" id="r0-WqExdtS5ZCbGD1Gwn">
    <mxGraphModel dx="1434" dy="1919" grid="1" gridSize="10" guides="1" tooltips="1" connect="1" arrows="1" fold="1" page="1" pageScale="1" pageWidth="827" pageHeight="1169" math="0" shadow="0">
      <root>
        <mxCell id="0" />
        <mxCell id="1" parent="0" />
        <mxCell id="hgrAGrMgJBVK0adbvTiH-1" value="&lt;font style=&quot;font-size: 28px;&quot;&gt;Utilisateur&lt;/font&gt;" style="swimlane;whiteSpace=wrap;html=1;fillColor=#ffe6cc;strokeColor=#d79b00;fontSize=17;startSize=40;" vertex="1" parent="1">
          <mxGeometry x="330" y="-430" width="200" height="340" as="geometry" />
        </mxCell>
        <mxCell id="hgrAGrMgJBVK0adbvTiH-2" value="Pseudo" style="text;html=1;align=center;verticalAlign=middle;resizable=0;points=[];autosize=1;strokeColor=none;fillColor=none;fontSize=28;" vertex="1" parent="hgrAGrMgJBVK0adbvTiH-1">
          <mxGeometry x="20" y="90" width="120" height="50" as="geometry" />
        </mxCell>
        <mxCell id="hgrAGrMgJBVK0adbvTiH-3" value="mail" style="text;html=1;align=center;verticalAlign=middle;resizable=0;points=[];autosize=1;strokeColor=none;fillColor=none;fontSize=28;" vertex="1" parent="hgrAGrMgJBVK0adbvTiH-1">
          <mxGeometry x="30" y="140" width="70" height="50" as="geometry" />
        </mxCell>
        <mxCell id="hgrAGrMgJBVK0adbvTiH-4" value="id_user" style="text;html=1;align=center;verticalAlign=middle;resizable=0;points=[];autosize=1;strokeColor=none;fillColor=none;fontSize=28;" vertex="1" parent="hgrAGrMgJBVK0adbvTiH-1">
          <mxGeometry x="20" y="30" width="120" height="50" as="geometry" />
        </mxCell>
        <mxCell id="hgrAGrMgJBVK0adbvTiH-6" value="Passeword" style="text;html=1;align=center;verticalAlign=middle;resizable=0;points=[];autosize=1;strokeColor=none;fillColor=none;fontSize=28;" vertex="1" parent="hgrAGrMgJBVK0adbvTiH-1">
          <mxGeometry x="20" y="190" width="160" height="50" as="geometry" />
        </mxCell>
        <mxCell id="hgrAGrMgJBVK0adbvTiH-7" value="Role" style="text;html=1;align=center;verticalAlign=middle;resizable=0;points=[];autosize=1;strokeColor=none;fillColor=none;fontSize=28;" vertex="1" parent="hgrAGrMgJBVK0adbvTiH-1">
          <mxGeometry x="30" y="250" width="80" height="50" as="geometry" />
        </mxCell>
      </root>
    </mxGraphModel>
  </diagram>
</mxfile>
